<?xml version="1.0" encoding="utf-8"?>
<!-- Generator: Adobe Illustrator 19.0.0, SVG Export Plug-In . SVG Version: 6.00 Build 0)  -->
<svg version="1.1" id="Слой_1" xmlns="http://www.w3.org/2000/svg" xmlns:xlink="http://www.w3.org/1999/xlink" x="0px" y="0px"
	 viewBox="-106 72.8 628.9 450.5" style="enable-background:new -106 72.8 628.9 450.5;" xml:space="preserve">
<style type="text/css">
	.st0{fill:none;stroke:#1E90FF;stroke-width:9;stroke-miterlimit:10;}
	.st1{fill:#1E90FF;}
	.st2{enable-background:new    ;}
	.st3{fill:#D9D8D8;}
</style>
<circle class="st0" cx="114.1" cy="298" r="220.1"/>
<g>
	<path class="st1" d="M-32.3,263.2v81h-10.4v-81h-29.6v-10h69.8v10H-32.3L-32.3,263.2z"/>
	<path class="st1" d="M53.3,315.2c-1.9,0.1-4,0.3-6.1,0.3H23v28.7H12.6v-91h34.6c22.8,0,35.9,11.2,35.9,30.6
		c0,15.1-7.3,25.2-20.4,29.5L84,344.2H72.1L53.3,315.2z M47.2,305.5c16.5,0,25.9-7.3,25.9-21.5c0-13.8-9.4-20.8-25.9-20.8H23v42.3
		H47.2L47.2,305.5z"/>
	<path class="st1" d="M193.3,298.7c0,25.6-21.1,46-47.6,46c-26.7,0-47.7-20.4-47.7-46c0-25.7,21.1-45.8,47.7-45.8
		C172.2,252.9,193.3,273.1,193.3,298.7z M108.5,298.7c0,20,16.9,36,37.2,36s36.9-16,36.9-36s-16.6-35.9-36.9-35.9
		S108.5,278.7,108.5,298.7z"/>
	<path class="st1" d="M277.3,344.2l-54.6-73.1v73.1h-10.4v-91h10.8l54.6,73.2v-73.2H288v91H277.3L277.3,344.2z"/>
</g>
<g class="st2">
	<path class="st1" d="M351.7,342.3c0.4-3.1,0.6-5.7,0.6-9v-41.7c0-3.8-0.2-6.2-0.6-9.2h6.4v4.6c0,1-0.1,1.9-0.2,3.3
		c3.6-5.7,9.2-8.6,16.3-8.6c12.3,0,19.8,8.4,19.8,22.3c0,13.6-7.7,22.3-19.7,22.3c-7,0-12.7-3-16.5-8.5c0.2,2.2,0.3,3.4,0.3,5.6v9.9
		c0,3.8,0.2,6.1,0.6,9H351.7z M387.8,303.9c0-10.9-5.1-17.1-14.1-17.1c-9.2,0-15.4,6.9-15.4,17.2c0,5.2,1.7,10,4.6,12.8
		c2.8,2.7,6.8,4.2,11,4.2C382.5,321,387.8,314.5,387.8,303.9z"/>
	<path class="st1" d="M410.6,264.7c-0.4,2.9-0.6,5-0.6,9v42.8c0,3.6,0.2,5.8,0.6,9h-7.2c0.4-2.9,0.6-5.4,0.6-9v-42.8
		c0-3.9-0.2-6.1-0.6-9H410.6z"/>
	<path class="st1" d="M450.4,319.8c-3.1,2.8-4.6,3.8-7.4,4.9c-2.7,1-5.6,1.6-8.3,1.6c-8.8,0-14.1-4.6-14.1-12.1
		c0-6.4,4-11,11.4-13.1c4.7-1.4,8.6-1.8,18.4-2.1v-4.6c0-5.4-3.4-8.2-10.1-8.2c-4.4,0-7.7,1.1-9.9,3.4c-1,1.1-1.7,2.2-2.5,4.6
		l-6.2-1.4c1.4-3.7,2.5-5.4,4.5-7.1c3.3-3,8.1-4.6,14.1-4.6c10.5,0,16,4.5,16,13.1v22.5c0,3.6,0.2,5.6,0.6,8.8h-6.5V319.8z
		 M450.4,303.7c-9.5,0.2-14.1,0.8-17.7,2.3c-4.1,1.7-6.1,4.4-6.1,8.2c0,4.4,3.3,7.2,8.5,7.2c4.6,0,9.7-2.2,12.8-5.7
		c1.8-2,2.5-3.7,2.5-6.9V303.7z"/>
	<path class="st1" d="M467.9,325.5c0.5-3,0.6-5.2,0.6-9v-25c0-3.6-0.2-5.8-0.6-9h6.6v5.4c0,1,0,1.6-0.2,3.4c3.8-6.6,9-9.7,16.1-9.7
		c5.8,0,10.2,2.1,12.8,6c1.5,2.3,2.2,5.3,2.2,9.2v19.7c0,4.1,0.2,6.3,0.6,9h-7.2c0.4-3.1,0.6-5.5,0.6-9v-18.6c0-7.2-3.4-11-9.8-11
		c-4.5,0-8.1,2-11.4,6.3c-2.1,2.7-3,4.7-3.7,7.9v15.4c0,3.5,0.2,5.9,0.6,9H467.9z"/>
</g>
<g class="st2">
	<path class="st3" d="M358.1,425.6v7.1H351v-7.1H358.1z"/>
	<path class="st3" d="M407.2,393.8c-1.1-3.1-1.9-4.6-3.4-6.3c-2.9-3.4-7.1-5.1-12.3-5.1c-11.6,0-18.8,8.8-18.8,23.1
		c0,14.1,7.4,23.1,18.8,23.1c5.6,0,10.4-2.1,13.3-6c1.5-2.1,2.2-3.9,2.9-7.1l5.9,1.4c-1.2,4.2-2.1,6.2-3.9,8.5
		c-4,5.4-10.5,8.3-18.5,8.3c-6.9,0-12.6-2.1-16.7-6.3c-5-5-7.7-12.8-7.7-21.7c0-9.2,2.9-17,8.1-22.2c4.1-4,9.6-6.1,16.3-6.1
		c6.7,0,12.1,1.9,16,5.8c2.5,2.4,3.9,4.6,5.6,9L407.2,393.8z"/>
	<path class="st3" d="M461.2,393.8c-1.1-3.1-1.9-4.6-3.4-6.3c-2.9-3.4-7.1-5.1-12.3-5.1c-11.6,0-18.8,8.8-18.8,23.1
		c0,14.1,7.4,23.1,18.8,23.1c5.6,0,10.4-2.1,13.3-6c1.5-2.1,2.2-3.9,2.9-7.1l5.9,1.4c-1.2,4.2-2.1,6.2-3.9,8.5
		c-4,5.4-10.5,8.3-18.5,8.3c-6.9,0-12.6-2.1-16.7-6.3c-5-5-7.7-12.8-7.7-21.7c0-9.2,2.9-17,8.1-22.2c4.1-4,9.6-6.1,16.3-6.1
		c6.7,0,12.1,1.9,16,5.8c2.5,2.4,3.9,4.6,5.6,9L461.2,393.8z"/>
</g>
</svg>
