<?xml version="1.0" encoding="utf-8"?>
<!-- Generator: Adobe Illustrator 19.0.0, SVG Export Plug-In . SVG Version: 6.00 Build 0)  -->
<svg version="1.1" id="Слой_1" xmlns="http://www.w3.org/2000/svg" xmlns:xlink="http://www.w3.org/1999/xlink" x="0px" y="0px"
	 viewBox="-190 55.8 459.9 483.5" style="enable-background:new -190 55.8 459.9 483.5;" xml:space="preserve">
<style type="text/css">
	.st0{fill:#1E90FF;}
</style>
<g>
	<circle class="st0" cx="178.9" cy="190.9" r="91"/>
	<g>
		<path class="st0" d="M55.1,237.6c0.1,0,0.1-0.1,0.2-0.1c11.7-8.1,15.4-24,8.1-36.5l0,0c-6.6-11.3-19.9-16.2-31.9-12.6l0,0
			c-0.2,0.1-0.4,0.1-0.6,0.2c-0.1,0-0.3,0.1-0.4,0.1c-1.7,0.6-3.3,1.2-4.8,2c-0.8,0.5-1.6,1-2.4,1.5c-2.9,1.9-4.9,4.7-7.7,7.5
			c-2.9,2.8-6,5.5-9.4,7.7c-23.8,15-54.7,8.5-72.7-11.8c0,0,0,0,0,0c-0.7-0.9-1.4-1.7-2.1-2.5c-2.2-2.5-4.6-4.9-7.1-7.1
			c-22.3-19-54.2-22-79.6-7.3c-33.1,19.1-44.5,61.5-25.4,94.6c17.9,31.1,56.3,43,88.4,28.6c2.1-1,4.2-2,6.3-3.2
			c12.4-7.2,22.3-18,28.3-31l0.1,0c0.5-1.1,1-2.2,1.4-3.4c0,0,0,0,0,0c0.3-0.7,0.7-1.4,1.1-2.2c14.7-28.6,49.8-39.8,78.4-25
			c0,0,0,0,0,0c1.6,1.2,3.3,2.2,5.1,3c0.3,0.1,0.6,0.3,0.9,0.4c0.1,0,0.2,0.1,0.3,0.1c0.2,0.1,0.4,0.1,0.5,0.2
			c0.1,0.1,0.3,0.1,0.4,0.2c0.1,0,0.3,0.1,0.4,0.1c0.2,0.1,0.4,0.1,0.5,0.2c0,0,0.1,0,0.1,0c0.8,0.2,1.5,0.4,2.3,0.6c0,0,0,0,0,0
			c4,0.9,8.1,0.8,12-0.1c0,0,0,0,0.1,0c0.2-0.1,0.5-0.1,0.7-0.2c0,0,0.1,0,0.1,0c0.2-0.1,0.5-0.1,0.7-0.2c0,0,0.1,0,0.1,0
			c0.7-0.2,1.3-0.4,2-0.7c0.1,0,0.2-0.1,0.3-0.1c0.2-0.1,0.3-0.1,0.5-0.2c0.1-0.1,0.3-0.1,0.4-0.2c0.1-0.1,0.3-0.1,0.4-0.2
			c0.2-0.1,0.4-0.2,0.6-0.3c0.1,0,0.2-0.1,0.3-0.1c0.3-0.1,0.6-0.3,0.8-0.4c0,0,0,0,0,0c0.2-0.1,0.4-0.2,0.7-0.4
			c0,0,0.1-0.1,0.1-0.1c0.3-0.2,0.6-0.3,0.8-0.5C54.6,238,54.9,237.8,55.1,237.6z"/>
		<polygon class="st0" points="31.6,188.3 31.6,188.3 31.6,188.3 		"/>
	</g>
	<path class="st0" d="M113,285.1L113,285.1c-7.1-12.2-22-17-34.7-11.6c-0.1,0-0.1,0-0.2,0.1c-0.2,0.1-0.5,0.2-0.7,0.3
		c-0.2,0.1-0.4,0.2-0.6,0.3c-0.1,0.1-0.3,0.1-0.4,0.2c-0.4,0.2-0.7,0.4-1.1,0.6c0,0,0,0-0.1,0c-0.1,0.1-0.2,0.1-0.3,0.2
		c-0.6,0.3-1.1,0.7-1.7,1.1c0,0-0.1,0.1-0.1,0.1c-0.2,0.1-0.4,0.3-0.6,0.4c0,0-0.1,0.1-0.1,0.1c-0.2,0.1-0.4,0.3-0.6,0.5
		c0,0,0,0,0,0c-4.8,3.8-8.3,9.2-9.7,15.4c0,0,0,0.1,0,0.1c0,0.2-0.1,0.4-0.1,0.5c0,0.1-0.1,0.3-0.1,0.4c0,0.1-0.1,0.3-0.1,0.4
		c0,0.2-0.1,0.4-0.1,0.6c0,0.1,0,0.2,0,0.3c0,0.3-0.1,0.6-0.1,1c-0.2,2-0.2,4,0.1,6c0,0,0,0,0,0c-0.9,19.8-11.9,37.8-29.1,47.7
		c-10.4,6-22.3,8.6-34.2,7.6c-1.2-0.2-2.4-0.3-3.6-0.4l0,0l0,0c-14.3-1.3-28.6,1.8-41,9c0,0,0,0,0,0c0,0,0,0,0,0
		c-2.1,1.2-4,2.5-5.9,3.8c-28.5,20.5-37.4,59.7-19.4,90.8c19.1,33.1,61.5,44.5,94.6,25.3c25.4-14.7,38.8-43.7,33.5-72.6l0,0
		c-0.6-3.3-1.5-6.5-2.5-9.7c-0.3-1-0.7-2-1.1-3c-8.6-25.7,1.2-55.8,26.1-68.9c3.6-1.9,7.5-3.2,11.4-4.4s7.3-1.4,10.3-3
		c0.9-0.4,1.7-0.8,2.5-1.3c1-0.6,1.9-1.3,2.8-2.1c0.6-0.5,1.3-1,1.8-1.5c0.1-0.1,0.2-0.2,0.4-0.3l0,0l0,0
		C117.1,310.4,119.5,296.4,113,285.1z"/>
</g>
</svg>
